# xmcd CD database file
#
# Track frame offsets:
#	150
#	25350
#	43200
#	64500
#	86250
#	104400
#	122850
#	143100
#	164100
#	188475
#	209700
#	229875
#	251775
#	271800
#
# Disc length: 3853 seconds
#
# Revision: 1
# Processed by: cddbd v1.5.1PL0 Copyright (c) Steve Scherf et al.
# Submitted via: freeDBTagger 0.1
#
DISCID=cf0f0b0e
DTITLE=BEGIN - BEGIN SINGLE daizensyuu
DYEAR=2005
DGENRE=blues
TTITLE0=恋しくて
TTITLE1=Blue Snow
TTITLE2=YOU
TTITLE3=あふれる涙
TTITLE4=さよなら、そしてありがとう
TTITLE5=だれかが君を呼ぶ声が
TTITLE6=花待ち人
TTITLE7=OKINAWAN　SHOUT
TTITLE8=君だけを連れて
TTITLE9=声のおまもりください
TTITLE10=Birthday Song
TTITLE11=空に星があるように
TTITLE12=愛が走る
TTITLE13=家ヘ帰ろう
EXTD=
EXTT0=
EXTT1=
EXTT2=
EXTT3=
EXTT4=
EXTT5=
EXTT6=
EXTT7=
EXTT8=
EXTT9=
EXTT10=
EXTT11=
EXTT12=
EXTT13=
PLAYORDER=
